<svg xmlns="http://www.w3.org/2000/svg" xmlns:xlink="http://www.w3.org/1999/xlink" width="800" height="754.72"><rect width="800" height="754.72" rx="5" ry="5" class="a"/><svg y="0%" x="0%"><circle cx="20" cy="20" r="6" fill="#ff5f58"/><circle cx="40" cy="20" r="6" fill="#ffbd2e"/><circle cx="60" cy="20" r="6" fill="#18c132"/></svg><svg height="694.72" viewBox="0 0 76 69.472" width="760" x="15" xmlns="http://www.w3.org/2000/svg" xmlns:xlink="http://www.w3.org/1999/xlink" y="50"><style>@keyframes m{0%{transform:translateX(0)}.28%{transform:translateX(-76px)}.39%{transform:translateX(-152px)}.41%{transform:translateX(-304px)}2.09%{transform:translateX(-380px)}2.3%{transform:translateX(-456px)}2.43%{transform:translateX(-532px)}2.65%{transform:translateX(-608px)}2.88%{transform:translateX(-684px)}3.04%{transform:translateX(-760px)}3.32%{transform:translateX(-836px)}4.3%{transform:translateX(-912px)}4.39%{transform:translateX(-988px)}4.64%{transform:translateX(-1064px)}4.8%{transform:translateX(-1140px)}5.18%{transform:translateX(-1216px)}5.42%{transform:translateX(-1292px)}5.67%{transform:translateX(-1368px)}5.75%{transform:translateX(-1444px)}5.97%{transform:translateX(-1520px)}6.42%{transform:translateX(-1596px)}6.98%{transform:translateX(-1672px)}7.16%{transform:translateX(-1748px)}7.29%{transform:translateX(-1824px)}7.56%{transform:translateX(-1900px)}7.74%{transform:translateX(-1976px)}7.96%{transform:translateX(-2052px)}8.12%{transform:translateX(-2128px)}8.32%{transform:translateX(-2204px)}8.46%{transform:translateX(-2280px)}8.67%{transform:translateX(-2356px)}8.92%{transform:translateX(-2432px)}9.1%{transform:translateX(-2508px)}9.37%{transform:translateX(-2584px)}9.53%{transform:translateX(-2660px)}9.8%{transform:translateX(-2736px)}9.89%{transform:translateX(-2812px)}10.14%{transform:translateX(-2888px)}10.55%{transform:translateX(-2964px)}10.7%{transform:translateX(-3040px)}10.9%{transform:translateX(-3116px)}11.12%{transform:translateX(-3192px)}11.39%{transform:translateX(-3268px)}11.72%{transform:translateX(-3344px)}11.88%{transform:translateX(-3420px)}12.17%{transform:translateX(-3496px)}12.37%{transform:translateX(-3572px)}12.7%{transform:translateX(-3648px)}12.9%{transform:translateX(-3724px)}13.11%{transform:translateX(-3800px)}13.47%{transform:translateX(-3876px)}13.71%{transform:translateX(-3952px)}13.8%{transform:translateX(-4028px)}14.04%{transform:translateX(-4104px)}14.29%{transform:translateX(-4180px)}14.44%{transform:translateX(-4256px)}14.77%{transform:translateX(-4332px)}15.25%{transform:translateX(-4560px)}16.43%{transform:translateX(-4712px)}21.95%{transform:translateX(-4788px)}30.59%{transform:translateX(-4864px)}36.89%{transform:translateX(-4940px)}43.16%{transform:translateX(-5016px)}49.13%{transform:translateX(-5092px)}55.17%{transform:translateX(-5168px)}60.97%{transform:translateX(-5244px)}67.16%{transform:translateX(-5320px)}71.81%{transform:translateX(-5396px)}77.81%{transform:translateX(-5472px)}86.77%{transform:translateX(-5548px)}92.74%{transform:translateX(-5624px)}to{transform:translateX(-5700px)}}.a{fill:#282d35}.f{fill:#a8cc8c;font-weight:700}.f,.g,.h{white-space:pre}.g{fill:#71bef2;font-weight:700}.h{fill:#b9c0cb}</style><g font-family="Monaco,Consolas,Menlo,'Bitstream Vera Sans Mono','Powerline Symbols',monospace" font-size="1.67"><defs><symbol id="1"><text y="1.67" class="f">dan@thinkdan</text><text x="13.026" y="1.67" class="g">~/eth/mthesis/tests</text><text x="33.066" y="1.67" class="g">$</text></symbol><symbol id="2"><text y="1.67" class="f">dan@thinkdan</text><text x="13.026" y="1.67" class="g">~/eth/mthesis/tests</text><text x="33.066" y="1.67" class="g">$</text><text x="35.07" y="1.67" class="h">docker</text></symbol><symbol id="3"><text y="1.67" class="f">dan@thinkdan</text><text x="13.026" y="1.67" class="g">~/eth/mthesis/tests</text><text x="33.066" y="1.67" class="g">$</text><text x="35.07" y="1.67" class="h">docker</text><text x="42.084" y="1.67" class="h">run</text></symbol><symbol id="4"><text y="1.67" class="f">dan@thinkdan</text><text x="13.026" y="1.67" class="g">~/eth/mthesis/tests</text><text x="33.066" y="1.67" class="g">$</text><text x="35.07" y="1.67" class="h">docker</text><text x="42.084" y="1.67" class="h">run</text><text x="46.092" y="1.67" class="h">--rm</text></symbol><symbol id="5"><text y="1.67" class="f">dan@thinkdan</text><text x="13.026" y="1.67" class="g">~/eth/mthesis/tests</text><text x="33.066" y="1.67" class="g">$</text><text x="35.07" y="1.67" class="h">docker</text><text x="42.084" y="1.67" class="h">run</text><text x="46.092" y="1.67" class="h">--rm</text><text x="51.102" y="1.67" class="h">-it</text></symbol><symbol id="6"><text y="1.67" class="f">dan@thinkdan</text><text x="13.026" y="1.67" class="g">~/eth/mthesis/tests</text><text x="33.066" y="1.67" class="g">$</text><text x="35.07" y="1.67" class="h">docker</text><text x="42.084" y="1.67" class="h">run</text><text x="46.092" y="1.67" class="h">--rm</text><text x="51.102" y="1.67" class="h">-it</text><text x="55.11" y="1.67" class="h">mthesis</text></symbol><symbol id="7"><text y="1.67" class="f">dan@thinkdan</text><text x="13.026" y="1.67" class="g">~/eth/mthesis/tests</text><text x="33.066" y="1.67" class="g">$</text><text x="35.07" y="1.67" class="h">docker</text><text x="42.084" y="1.67" class="h">run</text><text x="46.092" y="1.67" class="h">--rm</text><text x="51.102" y="1.67" class="h">-it</text><text x="55.11" y="1.67" class="h">mthesis</text><text x="63.126" y="1.67" class="h">/home/makepkg</text></symbol><symbol id="8"><text y="1.67" class="h">/test_all.sh</text></symbol><symbol id="9"><path fill="#71bef2" d="M0 0h17v2.171H0z"/><text y="1.67" style="white-space:pre" fill="#b9c0cb" font-weight="700">Running all tests</text></symbol><symbol id="10"><text y="1.67" class="h">Testing</text><text x="8.016" y="1.67" class="h">w/o</text><text x="12.024" y="1.67" class="h">any</text><text x="16.032" y="1.67" class="h">failures</text><text x="69.138" y="1.67" class="h">[</text><text x="71.142" y="1.67" class="f">OK</text><text x="74.148" y="1.67" class="h">]</text></symbol><symbol id="11"><text y="1.67" class="h">Testing</text><text x="8.016" y="1.67" class="h">failure</text><text x="16.032" y="1.67" class="h">during</text><text x="23.046" y="1.67" class="h">GET</text><text x="69.138" y="1.67" class="h">[</text><text x="71.142" y="1.67" class="f">OK</text><text x="74.148" y="1.67" class="h">]</text></symbol><symbol id="12"><text y="1.67" class="h">Testing</text><text x="8.016" y="1.67" class="h">failure</text><text x="16.032" y="1.67" class="h">during</text><text x="23.046" y="1.67" class="h">PUT</text><text x="69.138" y="1.67" class="h">[</text><text x="71.142" y="1.67" class="f">OK</text><text x="74.148" y="1.67" class="h">]</text></symbol><symbol id="13"><text y="1.67" class="h">Testing</text><text x="8.016" y="1.67" class="h">worker</text><text x="15.03" y="1.67" class="h">failover</text><text x="69.138" y="1.67" class="h">[</text><text x="71.142" y="1.67" class="f">OK</text><text x="74.148" y="1.67" class="h">]</text></symbol><symbol id="14"><text y="1.67" class="h">Testing</text><text x="8.016" y="1.67" class="h">recovering</text><text x="19.038" y="1.67" class="h">worker</text><text x="69.138" y="1.67" class="h">[</text><text x="71.142" y="1.67" class="f">OK</text><text x="74.148" y="1.67" class="h">]</text></symbol><symbol id="15"><text y="1.67" class="h">Testing</text><text x="8.016" y="1.67" class="h">failing</text><text x="16.032" y="1.67" class="h">dispatcher</text><text x="69.138" y="1.67" class="h">[</text><text x="71.142" y="1.67" class="f">OK</text><text x="74.148" y="1.67" class="h">]</text></symbol><symbol id="a"><path fill="transparent" d="M0 0h76v32H0z"/></symbol><symbol id="b"><path fill="#6f7683" d="M0 0h1.102v2.171H0z"/></symbol></defs><path class="a" d="M0 0h76v69.472H0z"/><g style="animation-duration:66.985553s;animation-iteration-count:infinite;animation-name:m;animation-timing-function:steps(1,end)"><svg width="5776"><svg><use xlink:href="#a"/><use xlink:href="#b" x="-.004"/></svg><svg x="76"><use xlink:href="#a"/><use xlink:href="#b" x="-.004"/></svg><svg x="152"><use xlink:href="#a"/><use xlink:href="#b" x="-.004"/></svg><svg x="228"><use xlink:href="#a"/><use xlink:href="#b" x="34.996"/><use xlink:href="#1"/></svg><svg x="304"><use xlink:href="#a"/><use xlink:href="#b" x="34.996"/><use xlink:href="#1"/></svg><svg x="380"><use xlink:href="#a"/><use xlink:href="#b" x="35.996"/><text y="1.67" class="f">dan@thinkdan</text><text x="13.026" y="1.67" class="g">~/eth/mthesis/tests</text><text x="33.066" y="1.67" class="g">$</text><text x="35.07" y="1.67" class="h">d</text></svg><svg x="456"><use xlink:href="#a"/><use xlink:href="#b" x="36.996"/><text y="1.67" class="f">dan@thinkdan</text><text x="13.026" y="1.67" class="g">~/eth/mthesis/tests</text><text x="33.066" y="1.67" class="g">$</text><text x="35.07" y="1.67" class="h">do</text></svg><svg x="532"><use xlink:href="#a"/><use xlink:href="#b" x="37.996"/><text y="1.67" class="f">dan@thinkdan</text><text x="13.026" y="1.67" class="g">~/eth/mthesis/tests</text><text x="33.066" y="1.67" class="g">$</text><text x="35.07" y="1.67" class="h">doc</text></svg><svg x="608"><use xlink:href="#a"/><use xlink:href="#b" x="38.996"/><text y="1.67" class="f">dan@thinkdan</text><text x="13.026" y="1.67" class="g">~/eth/mthesis/tests</text><text x="33.066" y="1.67" class="g">$</text><text x="35.07" y="1.67" class="h">dock</text></svg><svg x="684"><use xlink:href="#a"/><use xlink:href="#b" x="39.996"/><text y="1.67" class="f">dan@thinkdan</text><text x="13.026" y="1.67" class="g">~/eth/mthesis/tests</text><text x="33.066" y="1.67" class="g">$</text><text x="35.07" y="1.67" class="h">docke</text></svg><svg x="760"><use xlink:href="#a"/><use xlink:href="#b" x="40.996"/><use xlink:href="#2"/></svg><svg x="836"><use xlink:href="#a"/><use xlink:href="#b" x="41.996"/><use xlink:href="#2"/></svg><svg x="912"><use xlink:href="#a"/><use xlink:href="#b" x="42.996"/><text y="1.67" class="f">dan@thinkdan</text><text x="13.026" y="1.67" class="g">~/eth/mthesis/tests</text><text x="33.066" y="1.67" class="g">$</text><text x="35.07" y="1.67" class="h">docker</text><text x="42.084" y="1.67" class="h">r</text></svg><svg x="988"><use xlink:href="#a"/><use xlink:href="#b" x="43.996"/><text y="1.67" class="f">dan@thinkdan</text><text x="13.026" y="1.67" class="g">~/eth/mthesis/tests</text><text x="33.066" y="1.67" class="g">$</text><text x="35.07" y="1.67" class="h">docker</text><text x="42.084" y="1.67" class="h">ru</text></svg><svg x="1064"><use xlink:href="#a"/><use xlink:href="#b" x="44.996"/><use xlink:href="#3"/></svg><svg x="1140"><use xlink:href="#a"/><use xlink:href="#b" x="45.996"/><use xlink:href="#3"/></svg><svg x="1216"><use xlink:href="#a"/><use xlink:href="#b" x="46.996"/><text y="1.67" class="f">dan@thinkdan</text><text x="13.026" y="1.67" class="g">~/eth/mthesis/tests</text><text x="33.066" y="1.67" class="g">$</text><text x="35.07" y="1.67" class="h">docker</text><text x="42.084" y="1.67" class="h">run</text><text x="46.092" y="1.67" class="h">-</text></svg><svg x="1292"><use xlink:href="#a"/><use xlink:href="#b" x="47.996"/><text y="1.67" class="f">dan@thinkdan</text><text x="13.026" y="1.67" class="g">~/eth/mthesis/tests</text><text x="33.066" y="1.67" class="g">$</text><text x="35.07" y="1.67" class="h">docker</text><text x="42.084" y="1.67" class="h">run</text><text x="46.092" y="1.67" class="h">--</text></svg><svg x="1368"><use xlink:href="#a"/><use xlink:href="#b" x="48.996"/><text y="1.67" class="f">dan@thinkdan</text><text x="13.026" y="1.67" class="g">~/eth/mthesis/tests</text><text x="33.066" y="1.67" class="g">$</text><text x="35.07" y="1.67" class="h">docker</text><text x="42.084" y="1.67" class="h">run</text><text x="46.092" y="1.67" class="h">--r</text></svg><svg x="1444"><use xlink:href="#a"/><use xlink:href="#b" x="49.996"/><use xlink:href="#4"/></svg><svg x="1520"><use xlink:href="#a"/><use xlink:href="#b" x="50.996"/><use xlink:href="#4"/></svg><svg x="1596"><use xlink:href="#a"/><use xlink:href="#b" x="51.996"/><text y="1.67" class="f">dan@thinkdan</text><text x="13.026" y="1.67" class="g">~/eth/mthesis/tests</text><text x="33.066" y="1.67" class="g">$</text><text x="35.07" y="1.67" class="h">docker</text><text x="42.084" y="1.67" class="h">run</text><text x="46.092" y="1.67" class="h">--rm</text><text x="51.102" y="1.67" class="h">-</text></svg><svg x="1672"><use xlink:href="#a"/><use xlink:href="#b" x="52.996"/><text y="1.67" class="f">dan@thinkdan</text><text x="13.026" y="1.67" class="g">~/eth/mthesis/tests</text><text x="33.066" y="1.67" class="g">$</text><text x="35.07" y="1.67" class="h">docker</text><text x="42.084" y="1.67" class="h">run</text><text x="46.092" y="1.67" class="h">--rm</text><text x="51.102" y="1.67" class="h">-i</text></svg><svg x="1748"><use xlink:href="#a"/><use xlink:href="#b" x="53.996"/><use xlink:href="#5"/></svg><svg x="1824"><use xlink:href="#a"/><use xlink:href="#b" x="54.996"/><use xlink:href="#5"/></svg><svg x="1900"><use xlink:href="#a"/><use xlink:href="#b" x="55.996"/><text y="1.67" class="f">dan@thinkdan</text><text x="13.026" y="1.67" class="g">~/eth/mthesis/tests</text><text x="33.066" y="1.67" class="g">$</text><text x="35.07" y="1.67" class="h">docker</text><text x="42.084" y="1.67" class="h">run</text><text x="46.092" y="1.67" class="h">--rm</text><text x="51.102" y="1.67" class="h">-it</text><text x="55.11" y="1.67" class="h">m</text></svg><svg x="1976"><use xlink:href="#a"/><use xlink:href="#b" x="56.996"/><text y="1.67" class="f">dan@thinkdan</text><text x="13.026" y="1.67" class="g">~/eth/mthesis/tests</text><text x="33.066" y="1.67" class="g">$</text><text x="35.07" y="1.67" class="h">docker</text><text x="42.084" y="1.67" class="h">run</text><text x="46.092" y="1.67" class="h">--rm</text><text x="51.102" y="1.67" class="h">-it</text><text x="55.11" y="1.67" class="h">mt</text></svg><svg x="2052"><use xlink:href="#a"/><use xlink:href="#b" x="57.996"/><text y="1.67" class="f">dan@thinkdan</text><text x="13.026" y="1.67" class="g">~/eth/mthesis/tests</text><text x="33.066" y="1.67" class="g">$</text><text x="35.07" y="1.67" class="h">docker</text><text x="42.084" y="1.67" class="h">run</text><text x="46.092" y="1.67" class="h">--rm</text><text x="51.102" y="1.67" class="h">-it</text><text x="55.11" y="1.67" class="h">mth</text></svg><svg x="2128"><use xlink:href="#a"/><use xlink:href="#b" x="58.996"/><text y="1.67" class="f">dan@thinkdan</text><text x="13.026" y="1.67" class="g">~/eth/mthesis/tests</text><text x="33.066" y="1.67" class="g">$</text><text x="35.07" y="1.67" class="h">docker</text><text x="42.084" y="1.67" class="h">run</text><text x="46.092" y="1.67" class="h">--rm</text><text x="51.102" y="1.67" class="h">-it</text><text x="55.11" y="1.67" class="h">mthe</text></svg><svg x="2204"><use xlink:href="#a"/><use xlink:href="#b" x="59.996"/><text y="1.67" class="f">dan@thinkdan</text><text x="13.026" y="1.67" class="g">~/eth/mthesis/tests</text><text x="33.066" y="1.67" class="g">$</text><text x="35.07" y="1.67" class="h">docker</text><text x="42.084" y="1.67" class="h">run</text><text x="46.092" y="1.67" class="h">--rm</text><text x="51.102" y="1.67" class="h">-it</text><text x="55.11" y="1.67" class="h">mthes</text></svg><svg x="2280"><use xlink:href="#a"/><use xlink:href="#b" x="60.996"/><text y="1.67" class="f">dan@thinkdan</text><text x="13.026" y="1.67" class="g">~/eth/mthesis/tests</text><text x="33.066" y="1.67" class="g">$</text><text x="35.07" y="1.67" class="h">docker</text><text x="42.084" y="1.67" class="h">run</text><text x="46.092" y="1.67" class="h">--rm</text><text x="51.102" y="1.67" class="h">-it</text><text x="55.11" y="1.67" class="h">mthesi</text></svg><svg x="2356"><use xlink:href="#a"/><use xlink:href="#b" x="61.996"/><use xlink:href="#6"/></svg><svg x="2432"><use xlink:href="#a"/><use xlink:href="#b" x="62.996"/><use xlink:href="#6"/></svg><svg x="2508"><use xlink:href="#a"/><use xlink:href="#b" x="63.996"/><text y="1.67" class="f">dan@thinkdan</text><text x="13.026" y="1.67" class="g">~/eth/mthesis/tests</text><text x="33.066" y="1.67" class="g">$</text><text x="35.07" y="1.67" class="h">docker</text><text x="42.084" y="1.67" class="h">run</text><text x="46.092" y="1.67" class="h">--rm</text><text x="51.102" y="1.67" class="h">-it</text><text x="55.11" y="1.67" class="h">mthesis</text><text x="63.126" y="1.67" class="h">/</text></svg><svg x="2584"><use xlink:href="#a"/><use xlink:href="#b" x="64.996"/><text y="1.67" class="f">dan@thinkdan</text><text x="13.026" y="1.67" class="g">~/eth/mthesis/tests</text><text x="33.066" y="1.67" class="g">$</text><text x="35.07" y="1.67" class="h">docker</text><text x="42.084" y="1.67" class="h">run</text><text x="46.092" y="1.67" class="h">--rm</text><text x="51.102" y="1.67" class="h">-it</text><text x="55.11" y="1.67" class="h">mthesis</text><text x="63.126" y="1.67" class="h">/h</text></svg><svg x="2660"><use xlink:href="#a"/><use xlink:href="#b" x="65.996"/><text y="1.67" class="f">dan@thinkdan</text><text x="13.026" y="1.67" class="g">~/eth/mthesis/tests</text><text x="33.066" y="1.67" class="g">$</text><text x="35.07" y="1.67" class="h">docker</text><text x="42.084" y="1.67" class="h">run</text><text x="46.092" y="1.67" class="h">--rm</text><text x="51.102" y="1.67" class="h">-it</text><text x="55.11" y="1.67" class="h">mthesis</text><text x="63.126" y="1.67" class="h">/ho</text></svg><svg x="2736"><use xlink:href="#a"/><use xlink:href="#b" x="66.996"/><text y="1.67" class="f">dan@thinkdan</text><text x="13.026" y="1.67" class="g">~/eth/mthesis/tests</text><text x="33.066" y="1.67" class="g">$</text><text x="35.07" y="1.67" class="h">docker</text><text x="42.084" y="1.67" class="h">run</text><text x="46.092" y="1.67" class="h">--rm</text><text x="51.102" y="1.67" class="h">-it</text><text x="55.11" y="1.67" class="h">mthesis</text><text x="63.126" y="1.67" class="h">/hom</text></svg><svg x="2812"><use xlink:href="#a"/><use xlink:href="#b" x="67.996"/><text y="1.67" class="f">dan@thinkdan</text><text x="13.026" y="1.67" class="g">~/eth/mthesis/tests</text><text x="33.066" y="1.67" class="g">$</text><text x="35.07" y="1.67" class="h">docker</text><text x="42.084" y="1.67" class="h">run</text><text x="46.092" y="1.67" class="h">--rm</text><text x="51.102" y="1.67" class="h">-it</text><text x="55.11" y="1.67" class="h">mthesis</text><text x="63.126" y="1.67" class="h">/home</text></svg><svg x="2888"><use xlink:href="#a"/><use xlink:href="#b" x="68.996"/><text y="1.67" class="f">dan@thinkdan</text><text x="13.026" y="1.67" class="g">~/eth/mthesis/tests</text><text x="33.066" y="1.67" class="g">$</text><text x="35.07" y="1.67" class="h">docker</text><text x="42.084" y="1.67" class="h">run</text><text x="46.092" y="1.67" class="h">--rm</text><text x="51.102" y="1.67" class="h">-it</text><text x="55.11" y="1.67" class="h">mthesis</text><text x="63.126" y="1.67" class="h">/home/</text></svg><svg x="2964"><use xlink:href="#a"/><use xlink:href="#b" x="69.996"/><text y="1.67" class="f">dan@thinkdan</text><text x="13.026" y="1.67" class="g">~/eth/mthesis/tests</text><text x="33.066" y="1.67" class="g">$</text><text x="35.07" y="1.67" class="h">docker</text><text x="42.084" y="1.67" class="h">run</text><text x="46.092" y="1.67" class="h">--rm</text><text x="51.102" y="1.67" class="h">-it</text><text x="55.11" y="1.67" class="h">mthesis</text><text x="63.126" y="1.67" class="h">/home/m</text></svg><svg x="3040"><use xlink:href="#a"/><use xlink:href="#b" x="70.996"/><text y="1.67" class="f">dan@thinkdan</text><text x="13.026" y="1.67" class="g">~/eth/mthesis/tests</text><text x="33.066" y="1.67" class="g">$</text><text x="35.07" y="1.67" class="h">docker</text><text x="42.084" y="1.67" class="h">run</text><text x="46.092" y="1.67" class="h">--rm</text><text x="51.102" y="1.67" class="h">-it</text><text x="55.11" y="1.67" class="h">mthesis</text><text x="63.126" y="1.67" class="h">/home/ma</text></svg><svg x="3116"><use xlink:href="#a"/><use xlink:href="#b" x="71.996"/><text y="1.67" class="f">dan@thinkdan</text><text x="13.026" y="1.67" class="g">~/eth/mthesis/tests</text><text x="33.066" y="1.67" class="g">$</text><text x="35.07" y="1.67" class="h">docker</text><text x="42.084" y="1.67" class="h">run</text><text x="46.092" y="1.67" class="h">--rm</text><text x="51.102" y="1.67" class="h">-it</text><text x="55.11" y="1.67" class="h">mthesis</text><text x="63.126" y="1.67" class="h">/home/mak</text></svg><svg x="3192"><use xlink:href="#a"/><use xlink:href="#b" x="72.996"/><text y="1.67" class="f">dan@thinkdan</text><text x="13.026" y="1.67" class="g">~/eth/mthesis/tests</text><text x="33.066" y="1.67" class="g">$</text><text x="35.07" y="1.67" class="h">docker</text><text x="42.084" y="1.67" class="h">run</text><text x="46.092" y="1.67" class="h">--rm</text><text x="51.102" y="1.67" class="h">-it</text><text x="55.11" y="1.67" class="h">mthesis</text><text x="63.126" y="1.67" class="h">/home/make</text></svg><svg x="3268"><use xlink:href="#a"/><use xlink:href="#b" x="73.996"/><text y="1.67" class="f">dan@thinkdan</text><text x="13.026" y="1.67" class="g">~/eth/mthesis/tests</text><text x="33.066" y="1.67" class="g">$</text><text x="35.07" y="1.67" class="h">docker</text><text x="42.084" y="1.67" class="h">run</text><text x="46.092" y="1.67" class="h">--rm</text><text x="51.102" y="1.67" class="h">-it</text><text x="55.11" y="1.67" class="h">mthesis</text><text x="63.126" y="1.67" class="h">/home/makep</text></svg><svg x="3344"><use xlink:href="#a"/><use xlink:href="#b" x="74.996"/><text y="1.67" class="f">dan@thinkdan</text><text x="13.026" y="1.67" class="g">~/eth/mthesis/tests</text><text x="33.066" y="1.67" class="g">$</text><text x="35.07" y="1.67" class="h">docker</text><text x="42.084" y="1.67" class="h">run</text><text x="46.092" y="1.67" class="h">--rm</text><text x="51.102" y="1.67" class="h">-it</text><text x="55.11" y="1.67" class="h">mthesis</text><text x="63.126" y="1.67" class="h">/home/makepk</text></svg><svg x="3420"><use xlink:href="#a"/><use xlink:href="#b" x="-.004" y="2.146"/><use xlink:href="#7"/></svg><svg x="3496"><use xlink:href="#a"/><use xlink:href="#b" x=".996" y="2.146"/><use xlink:href="#7"/><text y="3.841" class="h">/</text></svg><svg x="3572"><use xlink:href="#a"/><use xlink:href="#b" x="1.996" y="2.146"/><use xlink:href="#7"/><text y="3.841" class="h">/t</text></svg><svg x="3648"><use xlink:href="#a"/><use xlink:href="#b" x="2.996" y="2.146"/><use xlink:href="#7"/><text y="3.841" class="h">/te</text></svg><svg x="3724"><use xlink:href="#a"/><use xlink:href="#b" x="3.996" y="2.146"/><use xlink:href="#7"/><text y="3.841" class="h">/tes</text></svg><svg x="3800"><use xlink:href="#a"/><use xlink:href="#b" x="4.996" y="2.146"/><use xlink:href="#7"/><text y="3.841" class="h">/test</text></svg><svg x="3876"><use xlink:href="#a"/><use xlink:href="#b" x="5.996" y="2.146"/><use xlink:href="#7"/><text y="3.841" class="h">/test_</text></svg><svg x="3952"><use xlink:href="#a"/><use xlink:href="#b" x="6.996" y="2.146"/><use xlink:href="#7"/><text y="3.841" class="h">/test_a</text></svg><svg x="4028"><use xlink:href="#a"/><use xlink:href="#b" x="7.996" y="2.146"/><use xlink:href="#7"/><text y="3.841" class="h">/test_al</text></svg><svg x="4104"><use xlink:href="#a"/><use xlink:href="#b" x="8.996" y="2.146"/><use xlink:href="#7"/><text y="3.841" class="h">/test_all</text></svg><svg x="4180"><use xlink:href="#a"/><use xlink:href="#b" x="9.996" y="2.146"/><use xlink:href="#7"/><text y="3.841" class="h">/test_all.</text></svg><svg x="4256"><use xlink:href="#a"/><use xlink:href="#b" x="10.996" y="2.146"/><use xlink:href="#7"/><text y="3.841" class="h">/test_all.s</text></svg><svg x="4332"><use xlink:href="#a"/><use xlink:href="#b" x="11.996" y="2.146"/><use xlink:href="#7"/><use xlink:href="#8" y="2.171"/></svg><svg x="4408"><use xlink:href="#a"/><use xlink:href="#b" x="11.996" y="2.146"/><use xlink:href="#7"/><use xlink:href="#8" y="2.171"/></svg><svg x="4484"><use xlink:href="#a"/><use xlink:href="#b" x="-.004" y="4.317"/><use xlink:href="#7"/><use xlink:href="#8" y="2.171"/></svg><svg x="4560"><use xlink:href="#a"/><use xlink:href="#b" x="-.004" y="4.317"/><use xlink:href="#7"/><use xlink:href="#8" y="2.171"/></svg><svg x="4636"><use xlink:href="#a"/><use xlink:href="#b" x="-.004" y="8.659"/><use xlink:href="#7"/><use xlink:href="#8" y="2.171"/><use xlink:href="#9" y="6.513"/></svg><svg x="4712"><use xlink:href="#a"/><use xlink:href="#b" x="23.996" y="8.659"/><use xlink:href="#7"/><use xlink:href="#8" y="2.171"/><use xlink:href="#9" y="6.513"/><text y="10.354" class="h">Testing</text><text x="8.016" y="10.354" class="h">w/o</text><text x="12.024" y="10.354" class="h">any</text><text x="16.032" y="10.354" class="h">failures</text></svg><svg x="4788"><use xlink:href="#a"/><use xlink:href="#b" x="25.996" y="10.83"/><use xlink:href="#7"/><use xlink:href="#8" y="2.171"/><use xlink:href="#9" y="6.513"/><use xlink:href="#10" y="8.684"/><text y="12.525" class="h">Testing</text><text x="8.016" y="12.525" class="h">failure</text><text x="16.032" y="12.525" class="h">during</text><text x="23.046" y="12.525" class="h">GET</text></svg><svg x="4864"><use xlink:href="#a"/><use xlink:href="#b" x="25.996" y="13.001"/><use xlink:href="#7"/><use xlink:href="#8" y="2.171"/><use xlink:href="#9" y="6.513"/><use xlink:href="#10" y="8.684"/><use xlink:href="#11" y="10.855"/><text y="14.696" class="h">Testing</text><text x="8.016" y="14.696" class="h">failure</text><text x="16.032" y="14.696" class="h">during</text><text x="23.046" y="14.696" class="h">PUT</text></svg><svg x="4940"><use xlink:href="#a"/><use xlink:href="#b" x="22.996" y="15.172"/><use xlink:href="#7"/><use xlink:href="#8" y="2.171"/><use xlink:href="#9" y="6.513"/><use xlink:href="#10" y="8.684"/><use xlink:href="#11" y="10.855"/><use xlink:href="#12" y="13.026"/><text y="16.867" class="h">Testing</text><text x="8.016" y="16.867" class="h">worker</text><text x="15.03" y="16.867" class="h">failover</text></svg><svg x="5016"><use xlink:href="#a"/><use xlink:href="#b" x="-.004" y="17.343"/><use xlink:href="#7"/><use xlink:href="#8" y="2.171"/><use xlink:href="#9" y="6.513"/><use xlink:href="#10" y="8.684"/><use xlink:href="#11" y="10.855"/><use xlink:href="#12" y="13.026"/><use xlink:href="#13" y="15.197"/></svg><svg x="5092"><use xlink:href="#a"/><use xlink:href="#b" x="24.996" y="17.343"/><use xlink:href="#7"/><use xlink:href="#8" y="2.171"/><use xlink:href="#9" y="6.513"/><use xlink:href="#10" y="8.684"/><use xlink:href="#11" y="10.855"/><use xlink:href="#12" y="13.026"/><use xlink:href="#13" y="15.197"/><text y="19.038" class="h">Testing</text><text x="8.016" y="19.038" class="h">recovering</text><text x="19.038" y="19.038" class="h">worker</text></svg><svg x="5168"><use xlink:href="#a"/><use xlink:href="#b" x="25.996" y="19.514"/><use xlink:href="#7"/><use xlink:href="#8" y="2.171"/><use xlink:href="#9" y="6.513"/><use xlink:href="#10" y="8.684"/><use xlink:href="#11" y="10.855"/><use xlink:href="#12" y="13.026"/><use xlink:href="#13" y="15.197"/><use xlink:href="#14" y="17.368"/><text y="21.209" class="h">Testing</text><text x="8.016" y="21.209" class="h">failing</text><text x="16.032" y="21.209" class="h">dispatcher</text></svg><svg x="5244"><use xlink:href="#a"/><use xlink:href="#b" x="-.004" y="21.685"/><use xlink:href="#7"/><use xlink:href="#8" y="2.171"/><use xlink:href="#9" y="6.513"/><use xlink:href="#10" y="8.684"/><use xlink:href="#11" y="10.855"/><use xlink:href="#12" y="13.026"/><use xlink:href="#13" y="15.197"/><use xlink:href="#14" y="17.368"/><use xlink:href="#15" y="19.539"/></svg><svg x="5320"><use xlink:href="#a"/><use xlink:href="#b" x="-.004" y="21.685"/><use xlink:href="#7"/><use xlink:href="#8" y="2.171"/><use xlink:href="#9" y="6.513"/><use xlink:href="#10" y="8.684"/><use xlink:href="#11" y="10.855"/><use xlink:href="#12" y="13.026"/><use xlink:href="#13" y="15.197"/><use xlink:href="#14" y="17.368"/><use xlink:href="#15" y="19.539"/></svg><svg x="5396"><use xlink:href="#a"/><use xlink:href="#b" x="-.004" y="21.685"/><use xlink:href="#7"/><use xlink:href="#8" y="2.171"/><use xlink:href="#9" y="6.513"/><use xlink:href="#10" y="8.684"/><use xlink:href="#11" y="10.855"/><use xlink:href="#12" y="13.026"/><use xlink:href="#13" y="15.197"/><use xlink:href="#14" y="17.368"/><use xlink:href="#15" y="19.539"/></svg><svg x="5472"><use xlink:href="#a"/><use xlink:href="#b" x="34.996" y="21.685"/><use xlink:href="#7"/><use xlink:href="#8" y="2.171"/><use xlink:href="#9" y="6.513"/><use xlink:href="#10" y="8.684"/><use xlink:href="#11" y="10.855"/><use xlink:href="#12" y="13.026"/><use xlink:href="#13" y="15.197"/><use xlink:href="#14" y="17.368"/><use xlink:href="#15" y="19.539"/><use xlink:href="#1" y="21.71"/></svg><svg x="5548"><use xlink:href="#a"/><use xlink:href="#b" x="34.996" y="21.685"/><use xlink:href="#7"/><use xlink:href="#8" y="2.171"/><use xlink:href="#9" y="6.513"/><use xlink:href="#10" y="8.684"/><use xlink:href="#11" y="10.855"/><use xlink:href="#12" y="13.026"/><use xlink:href="#13" y="15.197"/><use xlink:href="#14" y="17.368"/><use xlink:href="#15" y="19.539"/><use xlink:href="#1" y="21.71"/></svg><svg x="5624"><use xlink:href="#a"/><use xlink:href="#b" x="34.996" y="21.685"/><use xlink:href="#7"/><use xlink:href="#8" y="2.171"/><use xlink:href="#9" y="6.513"/><use xlink:href="#10" y="8.684"/><use xlink:href="#11" y="10.855"/><use xlink:href="#12" y="13.026"/><use xlink:href="#13" y="15.197"/><use xlink:href="#14" y="17.368"/><use xlink:href="#15" y="19.539"/><use xlink:href="#1" y="21.71"/></svg><svg x="5700"><use xlink:href="#a"/><use xlink:href="#b" x="-.004" y="23.856"/><use xlink:href="#7"/><use xlink:href="#8" y="2.171"/><use xlink:href="#9" y="6.513"/><use xlink:href="#10" y="8.684"/><use xlink:href="#11" y="10.855"/><use xlink:href="#12" y="13.026"/><use xlink:href="#13" y="15.197"/><use xlink:href="#14" y="17.368"/><use xlink:href="#15" y="19.539"/><use xlink:href="#1" y="21.71"/></svg></svg></g></g></svg></svg>